# xmcd
#
# Track frame offsets: 
#        150
#        14682
#        27732
#        47625
#        65530
#        79921
#        95476
#        111973
#        127683
#        145502
#        161542
#        178143
#        193973
#        210646
#        223541
#        236978
#
# Disc length: 3376 seconds
#
# Revision: 11
# Processed by: cddbd v1.5.2PL0 Copyright (c) Steve Scherf et al.
# Submitted via: ExactAudioCopy v0.99pb3
#
DISCID=ec0d2e10
DTITLE=Al Bano and Romina Power - Felicita (Gold-serie '82-'84)
DYEAR=1985
DGENRE=Italo
TTITLE0=Felicita
TTITLE1=Prima notte d'amore (Enlaces sur le sable)
TTITLE2=Sharazan
TTITLE3=L'amore e
TTITLE4=Meditando
TTITLE5=Canzone blu
TTITLE6=Magic oh magic
TTITLE7=Anche tu
TTITLE8=Perche
TTITLE9=Grazie
TTITLE10=Che angelo sei
TTITLE11=Angeli
TTITLE12=Tu soltanto tu (Mi hai fatto innamorare)
TTITLE13=Gli innamorati
TTITLE14=It's forever
TTITLE15=Ciao, aufwiedersehen, goodbye
EXTD=Gold-Serie\nAAD BMG Ariola 297097-200\n4007192 970971
EXTT0=
EXTT1=
EXTT2=
EXTT3=
EXTT4=
EXTT5=
EXTT6=
EXTT7=
EXTT8=
EXTT9=
EXTT10=
EXTT11=
EXTT12=
EXTT13=
EXTT14=
EXTT15=
PLAYORDER=
